<svg width="36" height="36" viewBox="0 0 36 36" fill="none" xmlns="http://www.w3.org/2000/svg">
<path fill-rule="evenodd" clip-rule="evenodd" d="M14.1867 1.46974C13.4619 0.74487 12.2866 0.74487 11.5618 1.46974C10.8369 2.1946 10.8369 3.36984 11.5618 4.09471L15.9678 8.50076V16.3939H8.07467L3.66862 11.9878C2.94376 11.263 1.76852 11.263 1.04365 11.9878C0.318783 12.7127 0.318783 13.888 1.04365 14.6128L4.68086 18.25L1.04365 21.8872C0.318783 22.6121 0.318783 23.7874 1.04365 24.5122C1.76852 25.2371 2.94376 25.2371 3.66862 24.5122L8.07467 20.1062H15.9678V27.9992L11.5618 32.4054C10.8369 33.1303 10.8369 34.3054 11.5618 35.0303C12.2866 35.7551 13.4619 35.7551 14.1867 35.0303L17.8239 31.3932L21.4612 35.0303C22.186 35.7551 23.3613 35.7551 24.0861 35.0303C24.811 34.3054 24.811 33.1303 24.0861 32.4054L19.6801 27.9992V20.1062H27.5731L31.9793 24.5122C32.7042 25.2371 33.8793 25.2371 34.6042 24.5122C35.329 23.7874 35.329 22.6121 34.6042 21.8872L30.9671 18.25L34.6042 14.6128C35.329 13.888 35.329 12.7127 34.6042 11.9878C33.8793 11.263 32.7042 11.263 31.9793 11.9878L27.5731 16.3939H19.6801V8.50076L24.0861 4.09471C24.811 3.36984 24.811 2.1946 24.0861 1.46974C23.3613 0.74487 22.186 0.74487 21.4612 1.46974L17.8239 5.10695L14.1867 1.46974ZM7.84949 8.27557C8.57434 7.55071 9.7496 7.55071 10.4745 8.27557L12.9493 10.7504C13.6742 11.4753 13.6742 12.6505 12.9493 13.3754C12.2245 14.1003 11.0492 14.1003 10.3243 13.3754L7.84949 10.9005C7.12463 10.1757 7.12463 9.00043 7.84949 8.27557ZM12.9493 25.7496C13.6742 25.0248 13.6742 23.8495 12.9493 23.1247C12.2245 22.3998 11.0492 22.3998 10.3243 23.1247L7.84949 25.5995C7.12463 26.3245 7.12463 27.4995 7.84949 28.2244C8.57434 28.9493 9.7496 28.9493 10.4745 28.2244L12.9493 25.7496ZM27.7983 8.27557C28.5232 9.00043 28.5232 10.1757 27.7983 10.9005L25.3235 13.3754C24.5987 14.1003 23.4234 14.1003 22.6986 13.3754C21.9737 12.6505 21.9737 11.4753 22.6986 10.7504L25.1734 8.27557C25.8984 7.55071 27.0734 7.55071 27.7983 8.27557ZM25.3235 23.1247C24.5987 22.3998 23.4234 22.3998 22.6986 23.1247C21.9737 23.8495 21.9737 25.0248 22.6986 25.7496L25.1734 28.2244C25.8984 28.9493 27.0734 28.9493 27.7983 28.2244C28.5232 27.4995 28.5232 26.3245 27.7983 25.5995L25.3235 23.1247Z" fill="#60A5FA"/>
</svg>
